<svg xmlns="http://www.w3.org/2000/svg" id="Layer_2" data-name="Layer 2" viewBox="0 0 788.28 257.96"><defs><style>      .cls-1, .cls-2 {        stroke-width: 0px;      }      .cls-2 {        fill: #0092cc;      }    </style></defs><g id="Layer_1-2" data-name="Layer 1"><g><path class="cls-2" d="m363.92,6.63c2.18-3.07,6.74-3.06,8.9.03l16.04,23.04c1.28,1.83,1.3,4.26.06,6.12l-77.04,115.26c-1.01,1.51-2.7,2.41-4.52,2.41h-36.81c-4.41,0-6.98-4.97-4.43-8.57L363.92,6.63Z"></path><path class="cls-2" d="m417.9,2.23c-1.02-1.4-2.65-2.23-4.39-2.23h-29.44c-4.36,0-6.94,4.87-4.5,8.48l96.71,142.64c1.01,1.49,2.69,2.38,4.5,2.38h36.65c4.44,0,7.01-5.04,4.39-8.63L417.9,2.23Z"></path><path class="cls-2" d="m297.68,4.52c-1.01-1.47-2.69-2.35-4.47-2.35h-29.23c-4.38,0-6.96,4.92-4.46,8.53l43.27,62.46c2.13,3.08,6.68,3.13,8.87.09l14.84-20.55c1.35-1.86,1.37-4.37.07-6.26l-28.88-41.91Z"></path><path class="cls-2" d="m390.99,66.82c1.61-2.79,5.65-2.79,7.26,0l21.98,38.07c1.61,2.79-.4,6.29-3.63,6.29h-43.95c-3.23,0-5.24-3.49-3.63-6.29l21.98-38.07Z"></path><path class="cls-1" d="m54.57,193.26c1.06,0,1.8.35,2.23,1.05.42.67.33,1.53-.27,2.59l-29.69,49.07c-2.67,4.43-5.49,7.53-8.46,9.32-2.94,1.79-6.18,2.68-9.73,2.68-2.73,0-5.02-.5-6.87-1.5-.52-.27-.91-.54-1.18-.82-.24-.24-.42-.62-.55-1.14-.12-.49.02-1.05.41-1.68l1.77-3.91c.55-.91,1.14-1.5,1.77-1.77.64-.24,1.5-.17,2.59.23.82.36,1.85.54,3.09.54,2.36,0,4.41-1.39,6.14-4.18l4.37-7.28-10.5-39.56c-.27-1.06-.06-1.93.64-2.59.73-.7,1.64-1.05,2.73-1.05h5.96c1.12,0,1.96.32,2.5.96.58.64.99,1.53,1.23,2.68l5.55,27.28,15.28-27.28c1.33-2.43,3.05-3.64,5.14-3.64h5.87Z"></path><path class="cls-1" d="m71.28,185.52c-1.94,0-3.61-.7-5-2.09-1.36-1.42-2.05-3.09-2.05-5,0-2.49.89-4.61,2.68-6.37,1.79-1.79,3.9-2.68,6.32-2.68,2,0,3.7.71,5.09,2.14,1.39,1.39,2.09,3.08,2.09,5.05,0,2.46-.91,4.56-2.73,6.32-1.79,1.76-3.93,2.64-6.41,2.64Zm20.33,0c-1.97,0-3.65-.7-5.05-2.09-1.36-1.39-2.05-3.06-2.05-5,0-2.52.88-4.65,2.64-6.41,1.79-1.76,3.93-2.64,6.41-2.64,1.97,0,3.64.71,5,2.14,1.36,1.39,2.05,3.08,2.05,5.05,0,2.49-.88,4.61-2.64,6.37-1.76,1.73-3.88,2.59-6.37,2.59Zm-15.46,55.89c-6.7,0-12.25-2.11-16.64-6.32-4.37-4.21-6.55-9.63-6.55-16.23,0-4.34.94-8.32,2.82-11.96,1.91-3.67,4.56-6.7,7.96-9.1,4.82-3.49,10.32-5.23,16.51-5.23,6.7,0,12.23,2.11,16.6,6.32,4.4,4.21,6.59,9.62,6.59,16.23,0,4.12-.85,7.94-2.55,11.46-1.7,3.52-4.08,6.5-7.14,8.96-5.06,3.91-10.93,5.87-17.6,5.87Zm.91-10.91c3.49,0,6.53-1.15,9.14-3.46,3.15-2.73,4.73-6.46,4.73-11.19,0-3.64-1.09-6.61-3.27-8.91-2.15-2.3-4.91-3.46-8.28-3.46s-6.49,1.15-9.09,3.46c-3.18,2.76-4.77,6.49-4.77,11.19,0,3.64,1.08,6.61,3.23,8.91,2.18,2.3,4.96,3.46,8.32,3.46Z"></path><path class="cls-1" d="m139.7,192.57c5.52,0,9.65,1.88,12.41,5.64,2.79,3.76,3.67,8.56,2.64,14.41l-4.27,24.01c-.24,1.12-.74,2.02-1.5,2.68-.76.64-1.68.96-2.77.96h-5.68c-1.09,0-1.89-.32-2.41-.96-.49-.67-.61-1.56-.36-2.68l4-23.1c.55-3.06.2-5.49-1.05-7.28-1.21-1.79-3.32-2.68-6.32-2.68-3.64,0-6.5,1.27-8.59,3.82-1.27,1.52-2.14,3.56-2.59,6.14l-4.09,23.1c-.24,1.12-.74,2.02-1.5,2.68-.76.64-1.68.96-2.77.96h-5.69c-1.12,0-1.94-.32-2.45-.96-.51-.67-.67-1.56-.46-2.68l7.09-39.74c.18-1.09.67-1.97,1.45-2.64.79-.67,1.7-1,2.73-1h3.82c1.12,0,1.94.33,2.46,1,.51.64.67,1.52.45,2.64l-.68,3.82c1.67-2.39,3.88-4.35,6.64-5.87,2.79-1.52,5.96-2.27,9.5-2.27Z"></path><path class="cls-1" d="m187.33,192.48c4.37,0,8.18.96,11.46,2.86,3.3,1.91,5.73,4.49,7.27,7.73,1.58,3.24,2.17,6.82,1.77,10.73-.12,1.36-.32,2.47-.59,3.32-.27.85-.65,1.47-1.14,1.86-.46.36-.9.61-1.32.73-.42.09-.97.14-1.64.14h-31.29v.14c-.27,3.73.76,6.65,3.09,8.78,2.37,2.09,5.43,3.14,9.19,3.14,2.33,0,4.34-.35,6-1.05,1.67-.73,3.39-1.77,5.18-3.14,1.88-1.33,3.4-1.33,4.55,0l2.09,2.59c1.15,1.36.89,2.82-.77,4.36-4.73,4.55-10.93,6.82-18.6,6.82-6.79,0-12.34-2.02-16.64-6.05-4.31-4.06-6.46-9.29-6.46-15.69,0-4.73,1.14-9.11,3.41-13.14,2.27-4.06,5.38-7.31,9.32-9.73,4.7-2.94,9.73-4.41,15.1-4.41Zm-14.05,19.55h22.42c0-2.58-.65-4.84-1.96-6.78-1.61-2.24-4.18-3.37-7.73-3.37-3.33,0-6.18,1.09-8.55,3.27-2.09,1.79-3.49,4.08-4.18,6.87Z"></path><path class="cls-1" d="m242.34,193.26c1.12,0,1.96.32,2.5.96.58.61.73,1.47.46,2.59l-.46,2.5c-.54,2.36-2,3.55-4.36,3.55h-9.91l-3.59,20.55c-.49,2.4-.32,4.18.5,5.37.85,1.15,2.17,1.73,3.96,1.73,1.21,0,2.67-.47,4.37-1.41,2-1.18,3.27-.77,3.82,1.23l1.05,4.09c.46,1.51-.36,2.88-2.46,4.09-1.39.91-3.12,1.64-5.18,2.18-2.06.55-4.08.82-6.05.82-2.24,0-4.26-.33-6.05-1-1.76-.67-3.27-1.68-4.55-3.05-1.24-1.39-2.08-3.15-2.5-5.27-.39-2.15-.35-4.7.14-7.64l3.91-21.69h-4.37c-1.15,0-2.03-.3-2.64-.91-.58-.64-.73-1.51-.46-2.64l.46-2.5c.27-1.15.79-2.03,1.55-2.64.79-.61,1.74-.91,2.87-.91h4.27l2.14-11.64c.21-1.09.65-1.92,1.32-2.5.67-.58,1.62-.99,2.87-1.23l5.68-1.05c1.24-.21,2.11.03,2.59.73.51.67.65,1.64.41,2.91l-2.27,12.78h10Z"></path><path class="cls-1" d="m259.46,185.52c-2,0-3.71-.71-5.14-2.14-1.39-1.46-2.09-3.17-2.09-5.14,0-2.55.91-4.71,2.73-6.5,1.82-1.82,4-2.73,6.55-2.73,2,0,3.71.73,5.14,2.18,1.42,1.43,2.14,3.12,2.14,5.09,0,2.55-.92,4.73-2.77,6.55-1.82,1.79-4,2.68-6.55,2.68Zm-12.73,54.75c-1.09,0-1.91-.33-2.45-1-.52-.67-.67-1.55-.46-2.64l7.09-39.74c.21-1.09.7-1.97,1.46-2.64.79-.67,1.7-1,2.73-1h5.78c1.09,0,1.89.33,2.41,1,.55.67.71,1.55.5,2.64l-7.09,39.74c-.24,1.12-.74,2.02-1.5,2.68-.76.64-1.68.96-2.77.96h-5.68Z"></path><path class="cls-1" d="m329.29,192.57c5.49,0,9.63,1.88,12.42,5.64,2.82,3.76,3.71,8.53,2.68,14.32l-4.27,24.1c-.27,1.12-.8,2.02-1.59,2.68-.79.64-1.73.96-2.82.96h-5.64c-1.09,0-1.89-.32-2.41-.96-.52-.67-.68-1.56-.5-2.68l4-21.96c.52-2.85.27-5.24-.73-7.18-.73-2.61-2.77-3.91-6.14-3.91-2.79,0-5.17.91-7.14,2.73-1.94,1.82-3.2,4.29-3.77,7.41l-4.09,22.92c-.49,2.43-1.91,3.64-4.28,3.64h-5.68c-1.06,0-1.85-.32-2.36-.96-.52-.67-.67-1.56-.46-2.68l3.82-21.96c.51-2.85.27-5.24-.73-7.18-.88-2.61-2.96-3.91-6.23-3.91-1.85,0-3.55.44-5.09,1.32-1.52.85-2.77,2.03-3.77,3.55-.82,1.18-1.44,2.94-1.86,5.27l-4.09,22.92c-.24,1.12-.74,2.02-1.5,2.68-.76.64-1.68.96-2.77.96h-5.68c-1.12,0-1.94-.32-2.46-.96-.52-.67-.67-1.56-.45-2.68l7.09-39.74c.21-1.12.71-2,1.5-2.64.79-.67,1.71-1,2.77-1h3.82c1.06,0,1.85.33,2.37,1,.51.64.67,1.52.45,2.64l-.77,3.91c1.7-2.43,3.88-4.4,6.55-5.91,2.7-1.55,5.76-2.32,9.19-2.32s6.37.74,8.82,2.23c2.49,1.49,4.27,3.55,5.37,6.18,1.7-2.43,4-4.43,6.91-6,2.91-1.61,6.09-2.41,9.55-2.41Z"></path><path class="cls-1" d="m408.15,198.17c2.82,3.55,3.68,8.37,2.59,14.46l-4.27,24.01c-.24,1.12-.76,2.02-1.55,2.68-.76.64-1.7.96-2.82.96h-2.5c-1.09,0-1.91-.29-2.45-.86-.52-.58-.7-1.32-.55-2.23l.45-2.41c-2.24,2.06-4.74,3.7-7.5,4.91-2.76,1.21-5.5,1.82-8.23,1.82-4.88,0-8.84-1.24-11.87-3.73-3-2.49-4.5-5.74-4.5-9.78,0-5.18,2.02-9.35,6.05-12.51,4.03-3.15,9.37-4.73,16.01-4.73,3.97,0,7.88.8,11.73,2.41l.36-1.95c.58-2.73.18-4.87-1.18-6.41-1.33-1.76-3.76-2.64-7.28-2.64-4.37,0-8.31,1.18-11.82,3.55-1.94,1.21-3.4.79-4.37-1.27l-.77-1.68c-1.06-2.09-.41-3.83,1.96-5.23,5.49-3.37,11.35-5.05,17.6-5.05,3.06,0,5.91.47,8.55,1.41,2.64.94,4.76,2.36,6.37,4.27Zm-23.19,34.74c2.79,0,5.38-.82,7.78-2.46,2.43-1.64,3.8-3.49,4.14-5.55l.68-3.46c-3.06-1.79-6.29-2.68-9.69-2.68-3.12,0-5.65.7-7.59,2.09-1.91,1.39-2.86,3.27-2.86,5.64,0,1.94.67,3.5,2,4.68,1.36,1.15,3.21,1.73,5.55,1.73Z"></path><path class="cls-1" d="m462.97,193.26c1.12,0,1.85.36,2.18,1.09.33.73.02,1.58-.95,2.55l-18.19,17.1,11.73,22.65c.51,1,.5,1.86-.05,2.59-.54.7-1.36,1.05-2.45,1.05h-6.59c-1.12,0-2.05-.26-2.77-.77-.73-.55-1.39-1.44-2-2.68l-7.91-16.96-6.23,5.77-1.95,11.01c-.24,1.12-.74,2.02-1.5,2.68-.76.64-1.68.96-2.77.96h-5.59c-1.09,0-1.89-.32-2.41-.96-.51-.67-.68-1.56-.5-2.68l10.55-58.03c.18-1.12.61-1.96,1.27-2.5.67-.58,1.61-.99,2.82-1.23l5.68-1c1.24-.21,2.12.01,2.64.68.51.64.65,1.59.41,2.87l-6.5,36.47,17.96-17.19c1.3-1.24,2.36-2.12,3.18-2.64.85-.54,1.77-.82,2.77-.82h7.18Z"></path><path class="cls-1" d="m503.33,198.17c2.82,3.55,3.68,8.37,2.59,14.46l-4.27,24.01c-.24,1.12-.76,2.02-1.55,2.68-.76.64-1.7.96-2.82.96h-2.5c-1.09,0-1.91-.29-2.46-.86-.52-.58-.7-1.32-.55-2.23l.45-2.41c-2.24,2.06-4.74,3.7-7.5,4.91-2.76,1.21-5.5,1.82-8.23,1.82-4.88,0-8.84-1.24-11.87-3.73-3-2.49-4.5-5.74-4.5-9.78,0-5.18,2.02-9.35,6.05-12.51,4.03-3.15,9.37-4.73,16.01-4.73,3.97,0,7.88.8,11.73,2.41l.36-1.95c.58-2.73.18-4.87-1.18-6.41-1.33-1.76-3.76-2.64-7.28-2.64-4.37,0-8.31,1.18-11.82,3.55-1.94,1.21-3.4.79-4.37-1.27l-.77-1.68c-1.06-2.09-.41-3.83,1.95-5.23,5.49-3.37,11.35-5.05,17.6-5.05,3.06,0,5.91.47,8.55,1.41,2.64.94,4.76,2.36,6.37,4.27Zm-23.19,34.74c2.79,0,5.38-.82,7.78-2.46,2.43-1.64,3.8-3.49,4.14-5.55l.68-3.46c-3.06-1.79-6.29-2.68-9.69-2.68-3.12,0-5.65.7-7.59,2.09-1.91,1.39-2.87,3.27-2.87,5.64,0,1.94.67,3.5,2,4.68,1.36,1.15,3.21,1.73,5.55,1.73Z"></path><path class="cls-1" d="m564.2,173.88c1.24-.18,2.12.06,2.64.73.54.67.7,1.61.45,2.82l-10.64,59.21c-.18,1.12-.65,2.02-1.41,2.68-.73.64-1.65.96-2.77.96h-3.55c-1.12,0-1.94-.32-2.45-.96-.52-.67-.65-1.56-.41-2.68l.27-1.77c-4.27,4.37-9.28,6.55-15.01,6.55-3.88,0-7.4-.97-10.55-2.91-3.12-1.94-5.58-4.58-7.37-7.91-1.76-3.34-2.64-7.03-2.64-11.1,0-5,1.08-9.55,3.23-13.64,2.18-4.12,5.21-7.37,9.09-9.73,3.91-2.37,8.28-3.55,13.1-3.55,2.88,0,5.56.56,8.05,1.68,2.52,1.09,4.64,2.65,6.37,4.68l3.64-20.33c.39-2.06,1.76-3.3,4.09-3.73l5.87-1Zm-29.42,56.61c3.97,0,7.21-1.43,9.73-4.27,2.52-2.85,3.77-6.37,3.77-10.55,0-3.58-1.03-6.5-3.09-8.78-2.06-2.27-4.73-3.41-8-3.41-4,0-7.29,1.44-9.87,4.32-2.55,2.85-3.82,6.35-3.82,10.5,0,3.61,1.05,6.55,3.14,8.82,2.09,2.24,4.8,3.36,8.14,3.36Z"></path><path class="cls-1" d="m594.55,192.48c4.36,0,8.18.96,11.46,2.86,3.3,1.91,5.73,4.49,7.28,7.73,1.58,3.24,2.17,6.82,1.77,10.73-.12,1.36-.32,2.47-.59,3.32-.27.85-.65,1.47-1.14,1.86-.45.36-.89.61-1.32.73-.42.09-.97.14-1.64.14h-31.29v.14c-.27,3.73.76,6.65,3.09,8.78,2.36,2.09,5.43,3.14,9.19,3.14,2.33,0,4.34-.35,6-1.05,1.67-.73,3.4-1.77,5.18-3.14,1.88-1.33,3.39-1.33,4.55,0l2.09,2.59c1.15,1.36.9,2.82-.77,4.36-4.73,4.55-10.93,6.82-18.6,6.82-6.79,0-12.34-2.02-16.64-6.05-4.3-4.06-6.46-9.29-6.46-15.69,0-4.73,1.14-9.11,3.41-13.14,2.27-4.06,5.38-7.31,9.32-9.73,4.7-2.94,9.73-4.41,15.1-4.41Zm-14.05,19.55h22.42c0-2.58-.65-4.84-1.96-6.78-1.61-2.24-4.18-3.37-7.73-3.37-3.33,0-6.18,1.09-8.55,3.27-2.09,1.79-3.49,4.08-4.18,6.87Z"></path><path class="cls-1" d="m680.71,192.57c5.49,0,9.63,1.88,12.41,5.64,2.82,3.76,3.71,8.53,2.68,14.32l-4.28,24.1c-.27,1.12-.8,2.02-1.59,2.68-.79.64-1.73.96-2.82.96h-5.64c-1.09,0-1.89-.32-2.41-.96-.51-.67-.68-1.56-.5-2.68l4-21.96c.52-2.85.27-5.24-.73-7.18-.73-2.61-2.77-3.91-6.14-3.91-2.79,0-5.17.91-7.14,2.73-1.94,1.82-3.2,4.29-3.77,7.41l-4.09,22.92c-.48,2.43-1.91,3.64-4.28,3.64h-5.68c-1.06,0-1.85-.32-2.36-.96-.52-.67-.67-1.56-.46-2.68l3.82-21.96c.52-2.85.27-5.24-.73-7.18-.88-2.61-2.96-3.91-6.23-3.91-1.85,0-3.55.44-5.09,1.32-1.52.85-2.77,2.03-3.77,3.55-.82,1.18-1.44,2.94-1.86,5.27l-4.09,22.92c-.24,1.12-.74,2.02-1.5,2.68-.76.64-1.68.96-2.77.96h-5.68c-1.12,0-1.94-.32-2.46-.96-.51-.67-.67-1.56-.45-2.68l7.09-39.74c.21-1.12.71-2,1.5-2.64.79-.67,1.71-1,2.77-1h3.82c1.06,0,1.85.33,2.36,1,.52.64.67,1.52.46,2.64l-.77,3.91c1.7-2.43,3.88-4.4,6.55-5.91,2.7-1.55,5.76-2.32,9.19-2.32s6.37.74,8.82,2.23c2.49,1.49,4.27,3.55,5.37,6.18,1.7-2.43,4-4.43,6.91-6,2.91-1.61,6.09-2.41,9.55-2.41Z"></path><path class="cls-1" d="m715.61,185.52c-2,0-3.71-.71-5.14-2.14-1.4-1.46-2.09-3.17-2.09-5.14,0-2.55.91-4.71,2.73-6.5,1.82-1.82,4-2.73,6.55-2.73,2,0,3.71.73,5.14,2.18,1.42,1.43,2.14,3.12,2.14,5.09,0,2.55-.92,4.73-2.77,6.55-1.82,1.79-4,2.68-6.55,2.68Zm-12.73,54.75c-1.09,0-1.91-.33-2.46-1-.52-.67-.67-1.55-.46-2.64l7.09-39.74c.21-1.09.7-1.97,1.46-2.64.79-.67,1.7-1,2.73-1h5.78c1.09,0,1.89.33,2.41,1,.55.67.71,1.55.5,2.64l-7.09,39.74c-.24,1.12-.74,2.02-1.5,2.68-.76.64-1.68.96-2.77.96h-5.68Z"></path><path class="cls-1" d="m738.69,241.5c-3.91,0-7.49-.61-10.73-1.82-3.24-1.24-5.81-2.94-7.68-5.09-1.55-1.76-1.3-3.56.73-5.41l1.96-1.86c1.24-.97,2.24-1.43,3-1.36.79.03,1.62.45,2.5,1.27,3.09,3,6.72,4.5,10.87,4.5,2.27,0,4.05-.45,5.32-1.36,1.3-.94,1.95-2.14,1.95-3.59,0-.61-.14-1.17-.41-1.68-.27-.52-.59-.94-.95-1.27-.33-.33-.88-.7-1.64-1.09-.73-.39-1.33-.68-1.82-.86-.46-.21-1.17-.5-2.14-.86-1.64-.58-2.99-1.09-4.05-1.55-1.03-.45-2.21-1.08-3.55-1.86-1.33-.82-2.38-1.65-3.14-2.5-.76-.88-1.41-1.97-1.96-3.27-.55-1.33-.82-2.8-.82-4.41,0-4.33,1.82-7.9,5.46-10.69,3.67-2.82,8.43-4.23,14.28-4.23,6.82,0,12.13,1.8,15.92,5.41,1.94,1.58,1.76,3.38-.55,5.41l-1.77,1.68c-1.82,1.61-3.56,1.76-5.23.46-2.73-2.3-5.84-3.46-9.32-3.46-2.09,0-3.71.36-4.87,1.09-1.15.73-1.73,1.7-1.73,2.91,0,.39.06.77.18,1.14.15.33.39.67.73,1,.36.3.7.58,1,.82.33.21.82.47,1.46.77.64.3,1.15.55,1.55.73.43.18,1.06.44,1.91.77.85.33,1.52.61,2,.82,3.79,1.64,6.67,3.47,8.64,5.5,2,2,3,4.7,3,8.09,0,4.79-1.85,8.64-5.55,11.55-3.67,2.88-8.52,4.32-14.55,4.32Z"></path><path class="cls-1" d="m778.96,185.52c-2,0-3.71-.71-5.14-2.14-1.4-1.46-2.09-3.17-2.09-5.14,0-2.55.91-4.71,2.73-6.5,1.82-1.82,4-2.73,6.55-2.73,2,0,3.71.73,5.14,2.18,1.42,1.43,2.14,3.12,2.14,5.09,0,2.55-.92,4.73-2.77,6.55-1.82,1.79-4,2.68-6.55,2.68Zm-12.73,54.75c-1.09,0-1.91-.33-2.46-1-.51-.67-.67-1.55-.45-2.64l7.09-39.74c.21-1.09.7-1.97,1.45-2.64.79-.67,1.7-1,2.73-1h5.78c1.09,0,1.9.33,2.41,1,.55.67.71,1.55.5,2.64l-7.09,39.74c-.24,1.12-.74,2.02-1.5,2.68-.76.64-1.68.96-2.77.96h-5.68Z"></path></g></g></svg>